<svg height="400pt" preserveAspectRatio="xMidYMid meet" viewBox="0 0 400 400" width="400pt" xmlns="http://www.w3.org/2000/svg"><g transform="matrix(.1 0 0 -.1 0 400)"><path d="m1914 3859c-17-5-143-73-280-152-1029-591-1171-675-1205-710-21-21-48-59-61-85l-23-47v-860-860l24-49c13-27 41-65 61-85 30-29 1310-776 1449-846 46-23 130-30 188-16 30 8 310 163 748 414 758 436 785 454 818 551 15 45 17 130 17 896v847l-31 61c-19 38-47 75-72 95-63 50-1415 828-1466 844-49 15-120 16-167 2zm138-360c76-16 95-27 650-346 537-309 570-332 617-433l26-55 3-640c3-635 3-640-19-708-24-74-75-136-154-188-31-21-623-362-825-476-19-11-60-35-90-53s-84-46-120-62c-60-28-72-30-150-25-89 5-143 24-270 98-30 18-246 142-480 277s-439 254-456 266c-40 27-75 69-105 126l-24 45v675 675l24 45c38 71 80 117 145 158 76 49 931 539 1006 577 45 23 124 50 162 54 4 1 31-4 60-10z"/><path d="m1930 3388c-64-18-1070-598-1111-640-66-68-64-48-64-743 0-619 0-631 21-675 31-67 67-96 251-201 92-53 317-182 498-286 182-105 349-200 373-212 61-31 145-30 209 2 83 42 1016 578 1050 603 18 14 45 46 60 72l28 47v650 650l-27 46c-17 29-48 60-80 82-29 19-282 166-562 326-490 281-511 291-560 290-28 0-67-5-86-11zm205-763c159-33 313-140 406-282 68-105 90-175 96-313 6-141-10-219-67-329-97-185-271-310-476-341-270-41-545 102-665 345-51 105-69 180-69 290 0 182 61 328 190 456 156 156 369 219 585 174z"/><path d="m1878 2514c-101-24-205-87-280-169-37-41-98-156-114-219-19-69-18-200 2-267 65-219 247-372 469-395 250-26 506 163 565 415 17 72 8 232-16 291-54 133-142 236-254 294-119 63-249 80-372 50zm242-106c141-43 258-163 295-304 52-200-47-409-235-498-82-38-211-48-301-22-252 74-380 369-262 605 91 179 313 276 503 219z"/><path d="m1954 2309c-104-13-202-87-247-187-33-73-30-190 6-264 54-109 146-169 273-176 73-4 88-1 143 23 70 32 132 93 164 163 31 67 30 188-1 258-57 127-195 201-338 183zm131-118c70-32 108-79 124-151 37-167-139-312-294-241-44 20-101 78-116 120-14 35-13 119 1 156 40 106 182 164 285 116z"/></g></svg>